HIERARCHY
ROOT joint_Root
{
	OFFSET 0.0 0.0 0.0
	CHANNELS 6 Xposition Yposition Zposition Zrotation Xrotation Yrotation 
	JOINT Hips
	{
		OFFSET 4.5925 91.4895 -427.239
		CHANNELS 6 Xposition Yposition Zposition Zrotation Xrotation Yrotation 
		JOINT Spine
		{
			OFFSET 15.7357 0.0 0.0
			CHANNELS 6 Xposition Yposition Zposition Zrotation Xrotation Yrotation 
			JOINT Chest
			{
				OFFSET 8.98455 -0.406207 0.0
				CHANNELS 6 Xposition Yposition Zposition Zrotation Xrotation Yrotation 
				JOINT Neck
				{
					OFFSET 16.3773 0.0 0.0
					CHANNELS 6 Xposition Yposition Zposition Zrotation Xrotation Yrotation 
					JOINT Head
					{
						OFFSET 6.45672 0.0 0.0
						CHANNELS 6 Xposition Yposition Zposition Zrotation Xrotation Yrotation 
						End Site
						{
							OFFSET 0.0 0.0 0.0
						}
					}
				}
				JOINT Shoulder_L
				{
					OFFSET 12.9942 -0.242716 4.98039
					CHANNELS 6 Xposition Yposition Zposition Zrotation Xrotation Yrotation 
					JOINT UpperArm_L
					{
						OFFSET 5.34809 0.0 0.0
						CHANNELS 6 Xposition Yposition Zposition Zrotation Xrotation Yrotation 
						JOINT LowerArm_L
						{
							OFFSET 24.3286 1.87007e-05 0.0
							CHANNELS 6 Xposition Yposition Zposition Zrotation Xrotation Yrotation 
							JOINT Hand_L
							{
								OFFSET 22.2916 0.0 0.0
								CHANNELS 6 Xposition Yposition Zposition Zrotation Xrotation Yrotation 
								End Site
								{
									OFFSET 0.0 0.0 0.0
								}
							}
						}
					}
				}
				JOINT Shoulder_R
				{
					OFFSET 12.9945 -0.242716 -4.98039
					CHANNELS 6 Xposition Yposition Zposition Zrotation Xrotation Yrotation 
					JOINT UpperArm_R
					{
						OFFSET -5.34813 0.0 0.0
						CHANNELS 6 Xposition Yposition Zposition Zrotation Xrotation Yrotation 
						JOINT LowerArm_R
						{
							OFFSET -24.3289 0.000322201 0.0
							CHANNELS 6 Xposition Yposition Zposition Zrotation Xrotation Yrotation 
							JOINT Hand_R
							{
								OFFSET -22.2915 -0.000108084 0.0
								CHANNELS 6 Xposition Yposition Zposition Zrotation Xrotation Yrotation 
								End Site
								{
									OFFSET 0.0 0.0 0.0
								}
							}
						}
					}
				}
			}
		}
		JOINT UpperLeg_L
		{
			OFFSET -2.19248 -6.46944 0.0
			CHANNELS 6 Xposition Yposition Zposition Zrotation Xrotation Yrotation 
			JOINT LowerLeg_L
			{
				OFFSET 39.0811 0.0 -1.23785e-05
				CHANNELS 6 Xposition Yposition Zposition Zrotation Xrotation Yrotation 
				JOINT Foot_L
				{
					OFFSET 40.9854 0.0 -1.26872e-05
					CHANNELS 6 Xposition Yposition Zposition Zrotation Xrotation Yrotation 
					JOINT Toes_L
					{
						OFFSET 11.7543 0.0 0.0
						CHANNELS 6 Xposition Yposition Zposition Zrotation Xrotation Yrotation 
						End Site
						{
							OFFSET 0.0 0.0 0.0
						}
					}
				}
			}
		}
		JOINT UpperLeg_R
		{
			OFFSET -2.19251 6.46944 0.0
			CHANNELS 6 Xposition Yposition Zposition Zrotation Xrotation Yrotation 
			JOINT LowerLeg_R
			{
				OFFSET -39.0811 -0.00228153 -0.0401928
				CHANNELS 6 Xposition Yposition Zposition Zrotation Xrotation Yrotation 
				JOINT Foot_R
				{
					OFFSET -40.9854 0.0 0.0
					CHANNELS 6 Xposition Yposition Zposition Zrotation Xrotation Yrotation 
					JOINT Toes_R
					{
						OFFSET -11.7543 0.0 0.0
						CHANNELS 6 Xposition Yposition Zposition Zrotation Xrotation Yrotation 
						End Site
						{
							OFFSET 0.0 0.0 0.0
						}
					}
				}
			}
		}
	}
}
MOTION
Frames:	6
Frame Time:	0.0333333
0.000000 0.000000 0.000000 0.000000 0.000000 -0.000000 -2.540060 90.671300 -4.846010 88.382800 -0.099373 11.521600 15.735700 0.000005 -0.000001 87.408900 74.372300 -88.659500 8.984550 -0.406207 -0.000000 23.447100 -1.540240 -2.195060 16.377300 -0.000001 -0.000001 14.412200 -4.804740 1.294000 6.456720 -0.000001 -0.000000 -10.351200 -3.775890 -3.058100 12.994200 -0.242716 4.980390 -91.173500 6.354840 -79.515200 5.348090 -0.000007 -0.000001 -53.705000 32.199700 -32.249900 24.328600 0.000019 0.000005 10.325100 22.974300 -25.021000 22.291600 -0.000001 0.000005 11.145900 5.245250 1.557840 12.994500 -0.242716 -4.980390 89.527200 2.412050 -78.905400 -5.348130 -0.000001 -0.000004 -73.109500 -10.808700 -75.209400 -24.328900 0.000322 -0.000009 17.206700 -5.493810 -107.179000 -22.291500 -0.000108 -0.000004 27.052000 5.266470 0.993422 -2.192480 -6.469440 -0.000000 -171.927000 -12.905900 -3.901820 39.081100 -0.000007 -0.000012 -0.171824 0.263623 33.095900 40.985400 -0.000006 -0.000013 -0.958752 6.031400 -67.090900 11.754300 -0.000000 0.000003 -0.000177 -0.001673 -16.640900 -2.192510 6.469440 -0.000001 175.384000 26.165000 179.071000 -39.081100 -0.002282 -0.040193 -0.189110 0.312267 31.640200 -40.985400 0.000008 0.000006 5.293840 14.602600 -68.872600 -11.754300 -0.000006 -0.000006 -0.002299 -0.032393 -17.890300
0.000000 0.000000 0.000000 0.000000 0.000000 -0.000000 -2.536690 90.671700 -4.848850 88.389800 -0.110715 11.514900 15.735700 0.000005 -0.000001 87.349200 74.376100 -88.605700 8.984550 -0.406207 -0.000000 23.437800 -1.572210 -2.200400 16.377300 -0.000001 -0.000001 14.336500 -4.802720 1.298310 6.456720 -0.000001 -0.000000 -10.346700 -3.766560 -3.007240 12.994200 -0.242716 4.980390 -91.178400 6.369050 -79.495300 5.348090 -0.000007 -0.000001 -53.774200 32.151500 -32.143300 24.328600 0.000019 0.000005 10.368000 23.026400 -25.067000 22.291600 -0.000001 0.000005 11.162500 5.244920 1.566500 12.994500 -0.242716 -4.980390 89.526400 2.412000 -78.889000 -5.348130 -0.000001 -0.000004 -73.135300 -10.867200 -75.521100 -24.328900 0.000322 -0.000009 17.152300 -5.442890 -107.084000 -22.291500 -0.000108 -0.000004 27.020300 5.266090 1.003440 -2.192480 -6.469440 -0.000000 -171.940000 -12.908700 -3.911970 39.081100 -0.000007 -0.000012 -0.170826 0.262130 33.092000 40.985400 -0.000006 -0.000013 -0.960231 6.016550 -67.083300 11.754300 -0.000000 0.000003 -0.000176 -0.001665 -16.640600 -2.192510 6.469440 -0.000001 175.372000 26.159400 179.066000 -39.081100 -0.002282 -0.040193 -0.189052 0.312149 31.642100 -40.985400 0.000008 0.000006 5.295950 14.634400 -68.876100 -11.754300 -0.000006 -0.000006 -0.002553 -0.035437 -18.014100
0.000000 0.000000 0.000000 0.000000 0.000000 -0.000000 -2.538790 90.670200 -4.841610 88.394700 -0.130460 11.477400 15.735700 0.000005 -0.000001 87.379700 74.402800 -88.643200 8.984550 -0.406207 -0.000000 23.385200 -1.554270 -2.218810 16.377300 -0.000001 -0.000001 14.303600 -4.832210 1.346290 6.456720 -0.000001 -0.000000 -10.356100 -3.765020 -2.984010 12.994200 -0.242716 4.980390 -91.173500 6.352830 -79.511800 5.348090 -0.000007 -0.000001 -53.754800 32.233500 -32.126900 24.328600 0.000019 0.000005 10.323500 22.982300 -25.010400 22.291600 -0.000001 0.000005 11.122000 5.244220 1.584990 12.994500 -0.242716 -4.980390 89.534700 2.365300 -78.867200 -5.348130 -0.000001 -0.000004 -73.211200 -10.961000 -75.648500 -24.328900 0.000322 -0.000009 17.152400 -5.424600 -107.030000 -22.291500 -0.000108 -0.000004 27.010700 5.268910 0.927693 -2.192480 -6.469440 -0.000000 -171.954000 -12.927100 -3.942130 39.081100 -0.000007 -0.000012 -0.167777 0.257381 33.099100 40.985400 -0.000006 -0.000013 -0.960650 6.004310 -67.096200 11.754300 -0.000000 0.000003 -0.000175 -0.001652 -16.640100 -2.192510 6.469440 -0.000001 175.399000 26.140300 179.014000 -39.081100 -0.002282 -0.040193 -0.188232 0.310669 31.654400 -40.985400 0.000008 0.000006 5.299300 14.617800 -68.882000 -11.754300 -0.000006 -0.000006 -0.002463 -0.034364 -17.970500
0.000000 0.000000 0.000000 0.000000 0.000000 -0.000000 -2.540750 90.676600 -4.822910 88.391500 -0.124208 11.479700 15.735700 0.000005 -0.000001 87.378800 74.418400 -88.645400 8.984550 -0.406207 -0.000000 23.354000 -1.553530 -2.225560 16.377300 -0.000001 -0.000001 14.235400 -4.844280 1.374580 6.456720 -0.000001 -0.000000 -10.364000 -3.768680 -2.987190 12.994200 -0.242716 4.980390 -91.173000 6.360530 -79.528800 5.348090 -0.000007 -0.000001 -53.809200 32.212800 -32.043600 24.328600 0.000019 0.000005 10.341000 23.044400 -24.992100 22.291600 -0.000001 0.000005 11.143300 5.245520 1.550720 12.994500 -0.242716 -4.980390 89.540000 2.334730 -78.850900 -5.348130 -0.000001 -0.000004 -73.302300 -11.014000 -75.644300 -24.328900 0.000322 -0.000009 17.026100 -5.387990 -107.047000 -22.291500 -0.000108 -0.000004 26.899700 5.266960 0.980012 -2.192480 -6.469440 -0.000000 -171.946000 -12.930100 -3.909580 39.081100 -0.000007 -0.000012 -0.168477 0.258774 33.066700 40.985400 -0.000006 -0.000013 -0.963472 6.005930 -67.093200 11.754300 -0.000000 0.000003 -0.000184 -0.001726 -16.642800 -2.192510 6.469440 -0.000001 175.384000 26.157000 179.057000 -39.081100 -0.002282 -0.040193 -0.188135 0.310992 31.614900 -40.985400 0.000008 0.000006 5.291570 14.634700 -68.877000 -11.754300 -0.000006 -0.000006 -0.002560 -0.035515 -18.017300
0.000000 0.000000 0.000000 0.000000 0.000000 -0.000000 -2.542530 90.678600 -4.801680 88.391600 -0.107289 11.456600 15.735700 0.000005 -0.000001 87.299500 74.444000 -88.563700 8.984550 -0.406207 -0.000000 23.300700 -1.592240 -2.213260 16.377300 -0.000001 -0.000001 14.166000 -4.827740 1.349660 6.456720 -0.000001 -0.000000 -10.375700 -3.758380 -3.012590 12.994200 -0.242716 4.980390 -91.181200 6.389430 -79.503100 5.348090 -0.000007 -0.000001 -53.833400 32.218400 -31.988500 24.328600 0.000019 0.000005 10.353700 23.085000 -24.983300 22.291600 -0.000001 0.000005 11.172100 5.243640 1.600090 12.994500 -0.242716 -4.980390 89.550600 2.289060 -78.890700 -5.348130 -0.000001 -0.000004 -73.301400 -11.049700 -75.572600 -24.328900 0.000322 -0.000009 17.001700 -5.367090 -107.010000 -22.291500 -0.000108 -0.000004 26.940400 5.267940 0.953707 -2.192480 -6.469440 -0.000000 -171.953000 -12.928900 -3.916490 39.081100 -0.000007 -0.000012 -0.164440 0.252667 33.057100 40.985400 -0.000006 -0.000013 -0.960811 6.015150 -67.101500 11.754300 -0.000000 0.000003 -0.000175 -0.001652 -16.640100 -2.192510 6.469440 -0.000001 175.397000 26.160100 179.054000 -39.081100 -0.002282 -0.040193 -0.187099 0.309479 31.600900 -40.985400 0.000008 0.000006 5.284130 14.602000 -68.883300 -11.754300 -0.000006 -0.000006 -0.002467 -0.034418 -17.972700
0.000000 0.000000 0.000000 0.000000 0.000000 -0.000000 -2.539930 90.675400 -4.769320 88.381400 -0.098052 11.481200 15.735700 0.000005 -0.000001 87.342100 74.456900 -88.600300 8.984550 -0.406207 -0.000000 23.276100 -1.567740 -2.206800 16.377300 -0.000001 -0.000001 14.079800 -4.836810 1.358600 6.456720 -0.000001 -0.000000 -10.398200 -3.773480 -2.997970 12.994200 -0.242716 4.980390 -91.176400 6.378240 -79.527100 5.348090 -0.000007 -0.000001 -53.887700 32.229200 -31.955400 24.328600 0.000019 0.000005 10.341300 23.054600 -24.983700 22.291600 -0.000001 0.000005 11.095600 5.245660 1.547170 12.994500 -0.242716 -4.980390 89.538300 2.340150 -78.835000 -5.348130 -0.000001 -0.000004 -73.155200 -11.043200 -75.453300 -24.328900 0.000322 -0.000009 17.093400 -5.355270 -106.883000 -22.291500 -0.000108 -0.000004 27.057800 5.269330 0.915915 -2.192480 -6.469440 -0.000000 -171.924000 -12.917300 -3.874180 39.081100 -0.000007 -0.000012 -0.170399 0.261681 33.071400 40.985400 -0.000006 -0.000013 -0.965451 6.027660 -67.131900 11.754300 -0.000000 0.000003 -0.000171 -0.001626 -16.639200 -2.192510 6.469440 -0.000001 175.368000 26.157900 179.110000 -39.081100 -0.002282 -0.040193 -0.191131 0.315991 31.604200 -40.985400 0.000008 0.000006 5.281660 14.642600 -68.909500 -11.754300 -0.000006 -0.000006 -0.002427 -0.033944 -17.953400
